#!OML:ASF F:\VICON\USERDATA\INSTALL\rory3\rory3.ASF
:FULLY-SPECIFIED
:DEGREES
47
root 0.147513 17.9556 -16.5968 -0.454979 -4.60794 -7.09117
lowerback 10.2604 1.81411 6.44094
upperback -0.439644 3.34121 2.3131
thorax -6.00351 1.47439 -1.6902
lowerneck -17.2327 -3.25028 -1.63928
upperneck 21.3323 -4.04441 -0.135669
head 9.62842 -2.02769 -0.310724
rclavicle 2.01704e-014 8.44835e-015
rhumerus -20.0862 -6.25439 -82.6008
rradius 31.7583
rwrist -0.248512
rhand -21.5511 23.8228
rfingers 7.12502
rthumb 4.84219 -6.10188
lclavicle 2.01704e-014 8.44835e-015
lhumerus -35.326 5.3633 84.1029
lradius 22.9529
lwrist 5.10392
lhand -26.6915 17.1879
lfingers 7.12502
lthumb -0.12209 47.1676
rfemur 6.13014 4.71091 34.0959
rtibia 21.019
rfoot -19.5488 -5.72374
rtoes 4.51401
lfemur -26.0365 -5.06078 -9.28378
ltibia 16.3203
lfoot -4.38095 7.90802
ltoes -8.42514
48
root 0.158511 17.9375 -16.4204 -0.406639 -4.86688 -7.1003
lowerback 10.411 1.9155 6.48504
upperback -0.538222 3.49885 2.28221
thorax -6.1778 1.54201 -1.77842
lowerneck -17.488 -3.27539 -1.52584
upperneck 21.5274 -4.10135 -0.166661
head 9.7416 -2.04664 -0.354828
rclavicle 5.40446e-015 -2.25621e-014
rhumerus -20.0234 -6.27787 -82.5522
rradius 32.0863
rwrist -0.687611
rhand -21.2627 23.3956
rfingers 7.12502
rthumb 5.12066 -6.52254
lclavicle 5.40446e-015 -2.25621e-014
lhumerus -35.6526 5.25906 84.1874
lradius 22.915
lwrist 5.18445
lhand -26.8464 18.3871
lfingers 7.12502
lthumb -0.271783 48.3667
rfemur 6.85798 4.91812 34.0785
rtibia 20.7975
rfoot -19.51 -5.66541
rtoes 4.07889
lfemur -25.8067 -6.04202 -8.8774
ltibia 14.5715
lfoot -4.53539 8.53221
ltoes -11.6
49
root 0.175832 17.9077 -16.2422 -0.291286 -4.9505 -7.05444
lowerback 10.3074 1.99041 6.65351
upperback -0.612045 3.6047 2.12762
thorax -6.16972 1.58484 -2.04625
lowerneck -17.5198 -3.29194 -1.30572
upperneck 21.5286 -4.19466 -0.134112
head 9.74373 -2.06776 -0.392901
rclavicle -6.74004e-016 5.96354e-015
rhumerus -20.0364 -6.50851 -82.5752
rradius 32.2765
rwrist -0.907261
rhand -21.3198 23.7202
rfingers 7.12502
rthumb 5.06555 -6.19927
lclavicle -6.74004e-016 5.96354e-015
lhumerus -35.8943 5.09669 84.1279
lradius 22.8179
lwrist 5.0537
lhand -27.0166 18.186
lfingers 7.12502
lthumb -0.436084 48.1653
rfemur 7.4297 4.88433 33.9524
rtibia 20.7361
rfoot -19.5586 -5.59811
rtoes 2.83951
lfemur -25.7698 -6.78508 -8.70363
ltibia 13.1871
lfoot -5.55704 9.55417
ltoes -7.61297
50
root 0.193279 17.8784 -16.0628 -0.285623 -5.05205 -6.94092
lowerback 10.2372 2.03204 6.61839
upperback -0.646624 3.64893 2.08416
thorax -6.16222 1.6067 -2.07615
lowerneck -17.4393 -3.27384 -1.40668
upperneck 21.5343 -4.17639 0.00430303
head 9.73657 -2.05177 -0.324364
rclavicle 1.28775e-014 1.40143e-014
rhumerus -19.9331 -6.58452 -82.5239
rradius 32.0909
rwrist -0.57585
rhand -21.8675 24.1941
rfingers 7.12502
rthumb 4.53669 -5.73734
lclavicle 1.28775e-014 1.40143e-014
lhumerus -36.198 5.08163 84.1823
lradius 22.7394
lwrist 4.91118
lhand -27.092 17.8663
lfingers 7.12502
lthumb -0.508946 47.8455
rfemur 7.96702 4.91925 33.7713
rtibia 21.0103
rfoot -19.7055 -5.6071
rtoes 1.52061
lfemur -25.4084 -6.60018 -8.99106
ltibia 11.8444
lfoot -6.15076 9.53866
ltoes -9.00707
51
root 0.207301 17.843 -15.8858 -0.317838 -5.07134 -6.81121
lowerback 10.2513 2.03232 6.45049
upperback -0.692046 3.63592 2.12981
thorax -6.2325 1.60348 -1.93504
lowerneck -17.24 -3.27613 -1.56546
upperneck 21.4727 -4.15079 0.0578322
head 9.68278 -2.04805 -0.271858
rclavicle 2.40467e-014 1.85864e-014
rhumerus -19.9655 -6.44684 -82.4003
rradius 32.3863
rwrist -0.962741
rhand -21.4491 23.4632
rfingers 7.12502
rthumb 4.94069 -6.4592
lclavicle 2.40467e-014 1.85864e-014
lhumerus -36.3675 5.38677 84.2092
lradius 22.349
lwrist 4.42245
lhand -27.0718 17.9381
lfingers 7.12502
lthumb -0.489438 47.9173
rfemur 8.3154 5.02472 33.6298
rtibia 21.6521
rfoot -19.9108 -5.76844
rtoes 0.62822
lfemur -24.8625 -6.04361 -9.4741
ltibia 10.3301
lfoot -5.24384 8.91946
ltoes -15.6373
52
root 0.217893 17.843 -15.7066 -0.307884 -5.01999 -6.73475
lowerback 10.2426 1.97871 6.38563
upperback -0.808308 3.56388 2.13885
thorax -6.36135 1.56423 -1.88143
lowerneck -16.9783 -3.24385 -1.59067
upperneck 21.3998 -4.09742 0.0353224
head 9.60817 -2.02974 -0.2628
rclavicle -3.67441e-015 -4.27387e-015
rhumerus -20.2234 -6.35446 -82.3375
rradius 32.7088
rwrist -1.35351
rhand -20.6873 23.3032
rfingers 7.12502
rthumb 5.67622 -6.60075
lclavicle -3.67441e-015 -4.27387e-015
lhumerus -36.6754 5.63497 84.1412
lradius 22.0877
lwrist 4.04535
lhand -27.0281 17.7952
lfingers 7.12502
lthumb -0.447233 47.7745
rfemur 8.72885 5.18991 33.5752
rtibia 21.8967
rfoot -19.6826 -5.77755
rtoes 0.644098
lfemur -24.8082 -5.09985 -10.1586
ltibia 10.6206
lfoot -5.98022 8.10976
ltoes -9.69866
53
root 0.232482 17.839 -15.5241 -0.306134 -4.96065 -6.65922
lowerback 10.1958 1.98596 6.40726
upperback -0.789375 3.56737 2.08387
thorax -6.30936 1.56639 -1.94904
lowerneck -17.2912 -3.30843 -1.50862
upperneck 21.473 -4.1925 -0.0187043
head 9.68946 -2.07152 -0.31429
rclavicle -2.22701e-014 -1.55052e-014
rhumerus -20.0425 -6.67029 -82.286
rradius 32.5905
rwrist -1.19445
rhand -20.8924 23.4592
rfingers 7.12502
rthumb 5.4782 -6.44999
lclavicle -2.22701e-014 -1.55052e-014
lhumerus -36.6829 5.47599 84.2245
lradius 21.9482
lwrist 4.02293
lhand -27.1777 16.4737
lfingers 7.12502
lthumb -0.591745 46.4526
rfemur 8.99016 5.2977 33.4919
rtibia 22.2871
rfoot -19.4388 -5.38494
rtoes 0.535671
lfemur -25.2788 -4.50621 -10.7166
ltibia 11.7455
lfoot -5.84545 7.27049
ltoes -10.4319
54
root 0.250715 17.8217 -15.341 -0.346214 -4.84419 -6.69809
lowerback 10.1428 1.95891 6.53314
upperback -0.695333 3.53584 2.07841
thorax -6.17409 1.5529 -2.01551
lowerneck -17.5962 -3.34068 -1.35666
upperneck 21.3929 -4.25208 -0.10846
head 9.71211 -2.09593 -0.383136
rclavicle -7.15004e-015 -1.05356e-014
rhumerus -19.8113 -6.89898 -82.2488
rradius 32.5903
rwrist -1.18994
rhand -21.1677 23.4372
rfingers 7.12502
rthumb 5.21245 -6.47865
lclavicle -7.15004e-015 -1.05356e-014
lhumerus -36.5414 5.54078 84.2365
lradius 21.7539
lwrist 3.93244
lhand -27.6709 15.3708
lfingers 7.12502
lthumb -1.06802 45.3479
rfemur 9.66297 5.38586 33.5297
rtibia 22.6518
rfoot -19.3576 -5.57388
rtoes -2.53619
lfemur -25.6081 -3.52435 -11.3647
ltibia 13.4817
lfoot -5.19969 5.79244
ltoes -8.61599
55
root 0.265384 17.8203 -15.1477 -0.53417 -4.69198 -6.89747
lowerback 10.2773 1.92025 6.79811
upperback -0.645217 3.52934 2.13939
thorax -6.18683 1.54213 -2.10266
lowerneck -17.703 -3.39336 -1.42991
upperneck 21.3389 -4.33318 0.0171501
head 9.7183 -2.12443 -0.339857
rclavicle 9.9206e-015 1.30204e-014
rhumerus -19.9826 -6.97937 -82.1063
rradius 32.8451
rwrist -1.50373
rhand -21.0892 23.0645
rfingers 7.12502
rthumb 5.28823 -6.84955
lclavicle 9.9206e-015 1.30204e-014
lhumerus -36.6012 5.57173 84.2347
lradius 21.5801
lwrist 3.53037
lhand -27.9577 15.418
lfingers 7.12502
lthumb -1.34504 45.3935
rfemur 10.1546 5.54639 33.7874
rtibia 23.2282
rfoot -18.8922 -5.73225
rtoes -3.61189
lfemur -25.747 -2.53569 -11.8435
ltibia 15.1588
lfoot -6.94679 5.21182
ltoes -0.415614
56
root 0.27871 17.8255 -14.9533 -0.771186 -4.67708 -6.92174
lowerback 10.3758 1.94315 6.81195
upperback -0.558388 3.56737 2.17916
thorax -6.14881 1.56381 -2.07663
lowerneck -17.8443 -3.38687 -1.41553
upperneck 21.3164 -4.33049 0.0376975
head 9.73665 -2.11887 -0.337125
rclavicle -8.67198e-015 3.25013e-014
rhumerus -20.0296 -7.39386 -81.9346
rradius 32.7689
rwrist -1.56536
rhand -20.9443 23.1313
rfingers 7.12502
rthumb 5.42815 -6.7792
lclavicle -8.67198e-015 3.25013e-014
lhumerus -36.6384 5.80528 84.1616
lradius 21.3155
lwrist 3.07662
lhand -27.7423 16.5973
lfingers 7.12502
lthumb -1.137 46.5741
rfemur 10.7037 5.71671 33.8371
rtibia 23.785
rfoot -18.3817 -5.50008
rtoes -3.47285
lfemur -25.793 -1.93563 -12.3405
ltibia 16.9639
lfoot -6.79422 4.88312
ltoes -6.45065
57
root 0.296845 17.8299 -14.7529 -0.969673 -4.78244 -6.69178
lowerback 10.2693 2.01665 6.6805
upperback -0.461455 3.6274 2.08721
thorax -5.98154 1.60393 -2.10146
lowerneck -17.8969 -3.41651 -1.29403
upperneck 21.2909 -4.39484 -0.00620634
head 9.73353 -2.14377 -0.381722
rclavicle 1.63221e-014 -1.03368e-014
rhumerus -20.1625 -7.87307 -81.8605
rradius 32.681
rwrist -1.33997
rhand -20.8496 23.7036
rfingers 7.12502
rthumb 5.5196 -6.20447
lclavicle 1.63221e-014 -1.03368e-014
lhumerus -36.5001 5.84738 84.0947
lradius 20.9624
lwrist 3.02283
lhand -27.5836 18.7357
lfingers 7.12502
lthumb -0.983771 48.7132
rfemur 10.9898 5.65818 33.452
rtibia 24.8938
rfoot -18.1986 -4.85308
rtoes -4.53611
lfemur -25.3287 -1.7754 -12.9436
ltibia 17.873
lfoot -8.70241 4.92406
ltoes -0.260178
58
root 0.318066 17.8226 -14.5433 -1.08707 -5.02208 -6.66962
lowerback 10.1842 2.11188 6.73001
upperback -0.471324 3.75292 2.08784
thorax -5.93071 1.66565 -2.14188
lowerneck -17.8698 -3.47749 -1.19243
upperneck 21.3575 -4.47709 -0.143159
head 9.74628 -2.18954 -0.457429
rclavicle 3.94898e-014 1.71949e-014
rhumerus -20.6053 -7.97805 -81.7537
rradius 32.9114
rwrist -1.27685
rhand -20.7391 23.9341
rfingers 7.12502
rthumb 5.62629 -5.97124
lclavicle 3.94898e-014 1.71949e-014
lhumerus -36.6471 6.10846 83.9763
lradius 20.8415
lwrist 2.69897
lhand -27.6841 19.6272
lfingers 7.12502
lthumb -1.0808 49.6042
rfemur 11.1887 5.71333 33.2718
rtibia 25.9925
rfoot -17.7636 -4.20693
rtoes -6.68778
lfemur -24.9939 -2.06297 -13.0659
ltibia 18.6859
lfoot -9.07258 4.57995
ltoes 6.17301
59
root 0.344179 17.813 -14.328 -1.21389 -5.24038 -6.54813
lowerback 9.99523 2.18114 6.70945
upperback -0.492445 3.82697 2.08887
thorax -5.84142 1.70569 -2.13061
lowerneck -17.6421 -3.52236 -1.24994
upperneck 21.3086 -4.52428 -0.151535
head 9.68833 -2.21871 -0.452058
rclavicle 2.89387e-014 3.39922e-014
rhumerus -21.1193 -7.924 -81.5949
rradius 33.1476
rwrist -1.47874
rhand -20.0581 24.436
rfingers 7.12502
rthumb 6.28374 -5.45085
lclavicle 2.89387e-014 3.39922e-014
lhumerus -36.8357 6.51213 83.7537
lradius 20.4904
lwrist 2.15158
lhand -27.3524 19.2641
lfingers 7.12502
lthumb -0.760408 49.2425
rfemur 11.4069 5.7487 32.9521
rtibia 27.017
rfoot -16.9415 -3.46147
rtoes -8.13518
lfemur -24.6276 -2.49751 -13.2762
ltibia 19.3128
lfoot -8.63325 3.41137
ltoes 9.82084
